<?xml version="1.0" encoding="utf-8"?>
<!-- Generator: Adobe Illustrator 25.2.3, SVG Export Plug-In . SVG Version: 6.00 Build 0)  -->
<svg version="1.1" id="Capa_1" xmlns="http://www.w3.org/2000/svg" xmlns:xlink="http://www.w3.org/1999/xlink" x="0px" y="0px"
	 viewBox="0 0 95.9 95.9" style="enable-background:new 0 0 95.9 95.9;" xml:space="preserve">
<style type="text/css">
	.st0{fill:#FFFFFF;}
</style>
<g>
	<path class="st0" d="M95.3,59.9c0-7.1-0.1-12.3-3.6-16.8c-4-5.1-10.1-6-15.1-6.2c0.8-3.6,1.1-7.6,0.7-11.9
		C77.3,10.7,66.6,0.4,51.8,0l-0.2,0L29,0l-0.2,0C20,0,13,2.6,8.1,7.8C5.1,11,1,16.6,0.6,25.7l0,36.5c0,0.7,0,1.4,0,2.1
		c0,10.4,1.7,17.8,6.8,23.4c5.2,5.5,12.8,8.3,22.8,8.3c0.2,0,0.4,0,0.6,0h34.5h0.1c8.9-0.1,16.3-3,21.6-8.5
		c5.3-5.4,8.1-13.2,8.2-22.4C95.4,65,95.3,61.3,95.3,59.9z M30.8,19.5l19.3,0c4.6,0.1,8.2,4.2,8.1,8.7c-0.1,4.5-3.7,7.8-8.2,7.8
		c0,0-19.5,0-19.5,0c-4.6-0.1-8.2-3.8-8.1-8.4C22.5,23,26.3,19.4,30.8,19.5z M67.2,73.7H28.5c-4.6,0-8.2-3.7-8.2-8.2
		c0-4.6,3.7-8.2,8.2-8.2h38.6c4.6,0,8.2,3.7,8.2,8.2C75.4,70,71.7,73.7,67.2,73.7z"/>
</g>
</svg>
